<svg width="24" height="24" viewBox="0 0 24 24" fill="none"
  xmlns="http://www.w3.org/2000/svg">
  <g clip-path="url(#clip0_3661_24543)">
    <g clip-path="url(#clip1_3661_24543)">
      <path opacity="0.5" d="M24 0H0V24H24V0Z" fill="white"/>
      <path d="M11.999 3.20101C16.85 3.20101 20.798 7.14901 20.798 12C20.798 16.851 16.85 20.799 11.999 20.799C7.148 20.799 3.2 16.851 3.2 12C3.2 7.14901 7.148 3.20101 11.999 3.20101ZM11.999 2.00101C6.476 2.00101 2 6.47701 2 12C2 17.523 6.476 21.999 11.999 21.999C17.522 21.999 21.998 17.523 21.998 12C21.998 6.47701 17.522 2.00101 11.999 2.00101Z" fill="black"/>
      <path d="M12 8.19899C12.993 8.19899 13.8 9.00599 13.8 9.99899C13.8 10.992 12.993 11.799 12 11.799C11.007 11.799 10.2 10.992 10.2 9.99899C10.2 9.00599 11.007 8.19899 12 8.19899ZM12 6.99899C10.344 6.99899 9 8.34299 9 9.99899C9 11.655 10.344 12.999 12 12.999C13.656 12.999 15 11.655 15 9.99899C15 8.34299 13.656 6.99899 12 6.99899Z" fill="black"/>
      <path d="M12.0012 17.289C13.9302 17.289 15.7633 17.904 17.2753 19.044C15.7603 20.184 13.9272 20.799 12.0012 20.799C10.0752 20.799 8.23925 20.184 6.72725 19.044C8.24225 17.904 10.0752 17.289 12.0012 17.289ZM12.0012 16.089C9.22625 16.089 6.71825 17.22 4.90625 19.044C6.71825 20.868 9.22625 21.999 12.0012 21.999C14.7762 21.999 17.2843 20.868 19.0963 19.044C17.2843 17.22 14.7762 16.089 12.0012 16.089Z" fill="black"/>
    </g>
  </g>
  <defs>
    <clipPath id="clip0_3661_24543">
      <rect width="24" height="24" fill="white"/>
    </clipPath>
    <clipPath id="clip1_3661_24543">
      <rect width="24" height="24" fill="white"/>
    </clipPath>
  </defs>
</svg>
