<svg width="80" height="80" viewBox="0 0 80 80" fill="none" xmlns="http://www.w3.org/2000/svg">
<path d="M39.9999 10.6699C56.1699 10.6699 69.3299 23.8299 69.3299 39.9999C69.3299 56.1699 56.1699 69.3299 39.9999 69.3299C23.8299 69.3299 10.6699 56.1699 10.6699 39.9999C10.6699 23.8299 23.8299 10.6699 39.9999 10.6699ZM39.9999 6.66992C21.5899 6.66992 6.66992 21.5899 6.66992 39.9999C6.66992 58.4099 21.5899 73.3299 39.9999 73.3299C58.4099 73.3299 73.3299 58.4099 73.3299 39.9999C73.3299 21.5899 58.4099 6.66992 39.9999 6.66992Z" fill="black"/>
<path d="M40 27.3301C43.31 27.3301 46 30.0201 46 33.3301C46 36.6401 43.31 39.3301 40 39.3301C36.69 39.3301 34 36.6401 34 33.3301C34 30.0201 36.69 27.3301 40 27.3301ZM40 23.3301C34.48 23.3301 30 27.8101 30 33.3301C30 38.8501 34.48 43.3301 40 43.3301C45.52 43.3301 50 38.8501 50 33.3301C50 27.8101 45.52 23.3301 40 23.3301Z" fill="black"/>
<path d="M39.9996 57.6299C46.4296 57.6299 52.5396 59.6799 57.5796 63.4799C52.5296 67.2799 46.4196 69.3299 39.9996 69.3299C33.5796 69.3299 27.4596 67.2799 22.4196 63.4799C27.4696 59.6799 33.5796 57.6299 39.9996 57.6299ZM39.9996 53.6299C30.7496 53.6299 22.3896 57.3999 16.3496 63.4799C22.3896 69.5599 30.7496 73.3299 39.9996 73.3299C49.2496 73.3299 57.6096 69.5599 63.6496 63.4799C57.6096 57.3999 49.2496 53.6299 39.9996 53.6299Z" fill="black"/>
</svg>
