<svg width="24" height="24" viewBox="0 0 24 24" fill="none"
  xmlns="http://www.w3.org/2000/svg">
  <path d="M12.0035 21.2973C10.7176 21.2973 9.50872 21.0529 8.37682 20.5641C7.24492 20.0754 6.26032 19.4121 5.42302 18.5743C4.58572 17.7364 3.92309 16.7526 3.43511 15.6229C2.94713 14.4931 2.70312 13.286 2.70312 12.0015C2.70312 10.7157 2.9475 9.50677 3.43625 8.37487C3.92498 7.24297 4.58828 6.25837 5.42613 5.42107C6.26396 4.58377 7.24775 3.92113 8.3775 3.43315C9.50725 2.94516 10.7144 2.70117 11.9989 2.70117C13.2847 2.70117 14.4936 2.94555 15.6255 3.4343C16.7574 3.92303 17.742 4.58632 18.5793 5.42417C19.4166 6.262 20.0793 7.2458 20.5673 8.37555C21.0552 9.5053 21.2992 10.7124 21.2992 11.9969C21.2992 13.2828 21.0548 14.4917 20.5661 15.6236C20.0774 16.7555 19.4141 17.7401 18.5762 18.5774C17.7384 19.4147 16.7546 20.0773 15.6249 20.5653C14.4951 21.0533 13.288 21.2973 12.0035 21.2973Z" fill="#D61930"/>
  <path d="M12.0035 21.2973C10.7176 21.2973 9.50872 21.0529 8.37682 20.5641C7.24492 20.0754 6.26032 19.4121 5.42302 18.5743C4.58572 17.7364 3.92309 16.7526 3.43511 15.6229C2.94713 14.4931 2.70312 13.286 2.70312 12.0015C2.70312 10.7157 2.9475 9.50677 3.43625 8.37487C3.92498 7.24297 4.58828 6.25837 5.42613 5.42107C6.26396 4.58377 7.24775 3.92113 8.3775 3.43315C9.50725 2.94516 10.7144 2.70117 11.9989 2.70117C13.2847 2.70117 14.4936 2.94555 15.6255 3.4343C16.7574 3.92303 17.742 4.58632 18.5793 5.42417C19.4166 6.262 20.0793 7.2458 20.5673 8.37555C21.0552 9.5053 21.2992 10.7124 21.2992 11.9969C21.2992 13.2828 21.0548 14.4917 20.5661 15.6236C20.0774 16.7555 19.4141 17.7401 18.5762 18.5774C17.7384 19.4147 16.7546 20.0773 15.6249 20.5653C14.4951 21.0533 13.288 21.2973 12.0035 21.2973Z" fill="#D61930"/>
  <path d="M12.0035 21.2973C10.7176 21.2973 9.50872 21.0529 8.37682 20.5641C7.24492 20.0754 6.26032 19.4121 5.42302 18.5743C4.58572 17.7364 3.92309 16.7526 3.43511 15.6229C2.94713 14.4931 2.70312 13.286 2.70312 12.0015C2.70312 10.7157 2.9475 9.50677 3.43625 8.37487C3.92498 7.24297 4.58828 6.25837 5.42613 5.42107C6.26396 4.58377 7.24775 3.92113 8.3775 3.43315C9.50725 2.94516 10.7144 2.70117 11.9989 2.70117C13.2847 2.70117 14.4936 2.94555 15.6255 3.4343C16.7574 3.92303 17.742 4.58632 18.5793 5.42417C19.4166 6.262 20.0793 7.2458 20.5673 8.37555C21.0552 9.5053 21.2992 10.7124 21.2992 11.9969C21.2992 13.2828 21.0548 14.4917 20.5661 15.6236C20.0774 16.7555 19.4141 17.7401 18.5762 18.5774C17.7384 19.4147 16.7546 20.0773 15.6249 20.5653C14.4951 21.0533 13.288 21.2973 12.0035 21.2973Z" fill="#D61930"/>
  <path d="M12.0035 21.2973C10.7176 21.2973 9.50872 21.0529 8.37682 20.5641C7.24492 20.0754 6.26032 19.4121 5.42302 18.5743C4.58572 17.7364 3.92309 16.7526 3.43511 15.6229C2.94713 14.4931 2.70312 13.286 2.70312 12.0015C2.70312 10.7157 2.9475 9.50677 3.43625 8.37487C3.92498 7.24297 4.58828 6.25837 5.42613 5.42107C6.26396 4.58377 7.24775 3.92113 8.3775 3.43315C9.50725 2.94516 10.7144 2.70117 11.9989 2.70117C13.2847 2.70117 14.4936 2.94555 15.6255 3.4343C16.7574 3.92303 17.742 4.58632 18.5793 5.42417C19.4166 6.262 20.0793 7.2458 20.5673 8.37555C21.0552 9.5053 21.2992 10.7124 21.2992 11.9969C21.2992 13.2828 21.0548 14.4917 20.5661 15.6236C20.0774 16.7555 19.4141 17.7401 18.5762 18.5774C17.7384 19.4147 16.7546 20.0773 15.6249 20.5653C14.4951 21.0533 13.288 21.2973 12.0035 21.2973Z" fill="#D61930"/>
  <path d="M12.0035 21.2973C10.7176 21.2973 9.50872 21.0529 8.37682 20.5641C7.24492 20.0754 6.26032 19.4121 5.42302 18.5743C4.58572 17.7364 3.92309 16.7526 3.43511 15.6229C2.94713 14.4931 2.70312 13.286 2.70312 12.0015C2.70312 10.7157 2.9475 9.50677 3.43625 8.37487C3.92498 7.24297 4.58828 6.25837 5.42613 5.42107C6.26396 4.58377 7.24775 3.92113 8.3775 3.43315C9.50725 2.94516 10.7144 2.70117 11.9989 2.70117C13.2847 2.70117 14.4936 2.94555 15.6255 3.4343C16.7574 3.92303 17.742 4.58632 18.5793 5.42417C19.4166 6.262 20.0793 7.2458 20.5673 8.37555C21.0552 9.5053 21.2992 10.7124 21.2992 11.9969C21.2992 13.2828 21.0548 14.4917 20.5661 15.6236C20.0774 16.7555 19.4141 17.7401 18.5762 18.5774C17.7384 19.4147 16.7546 20.0773 15.6249 20.5653C14.4951 21.0533 13.288 21.2973 12.0035 21.2973Z" fill="#D61930"/>
  <path d="M11.999 16.6303C12.2194 16.6303 12.4028 16.5579 12.5493 16.4132C12.6957 16.2685 12.769 16.086 12.769 15.8656C12.769 15.6453 12.6966 15.4619 12.5519 15.3154C12.4072 15.1689 12.2247 15.0957 12.0043 15.0957C11.784 15.0957 11.6006 15.1681 11.4541 15.3128C11.3076 15.4575 11.2344 15.64 11.2344 15.8604C11.2344 16.0807 11.3067 16.2641 11.4514 16.4106C11.5962 16.5571 11.7787 16.6303 11.999 16.6303ZM11.3123 13.0774H12.7113V7.1582H11.3123V13.0774Z" fill="white"/>
</svg>