<svg width="25" height="25" viewBox="0 0 25 25" fill="none"
  xmlns="http://www.w3.org/2000/svg">
  <path d="M5.41384 20.7778C5.18242 20.7041 4.97954 20.5801 4.80519 20.4057C4.63084 20.2314 4.50681 20.0269 4.43309 19.7923L20.0032 4.2019C20.25 4.27755 20.4575 4.4016 20.6258 4.57403C20.7941 4.74645 20.9202 4.94932 21.0042 5.18265L5.41384 20.7778ZM4.40039 14.4922V12.5134L12.7167 4.2019H14.6907L4.40039 14.4922ZM4.40039 7.1807V5.90863C4.40039 5.43363 4.5661 5.03043 4.89752 4.69903C5.22892 4.36761 5.63212 4.2019 6.10712 4.2019H7.38399L4.40039 7.1807ZM18.0177 20.798L20.9965 17.8144V19.0913C20.9965 19.5663 20.8308 19.9695 20.4994 20.3009C20.168 20.6323 19.7648 20.798 19.2898 20.798H18.0177ZM10.7062 20.798L20.9965 10.5077V12.4817L12.685 20.798H10.7062Z" fill="black"/>
</svg>
